# xmcd CD database file
# Copyright (C) 1993-1998 Ti Kan
#
# Track frame offsets:
#	150
#	12300
#	26462
#	37312
#	49712
#	61262
#	74950
#	87675
#	99125
#	114437
#
# Disc length: 1691 seconds
#
# Revision: 1
# Processed by: cddbd v1.4b41PL1 Copyright (c) Steve Scherf et al.
# Submitted via: CDValet v3.31 - Copyright (c) 1997 Greg Leichner
#
DISCID=8806990a
DTITLE=Little Milton - Rock In' The Blues
DYEAR=1900
DGENRE=
TTITLE0=Girls Ain't Groceries
TTITLE1=If Walls Could Talk
TTITLE2=Just A Little Bit
TTITLE3=A Poor Man's Song
TTITLE4=So Mean To Me
TTITLE5=Let's Get Together
TTITLE6=Without My Sweet Baby
TTITLE7=I Play Dirty
TTITLE8=Blind Man
TTITLE9=Baby I love You
EXTD=
EXTT0=
EXTT1=
EXTT2=
EXTT3=
EXTT4=
EXTT5=
EXTT6=
EXTT7=
EXTT8=
EXTT9=
PLAYORDER=
